# Blender 4.4.1
# www.blender.org
mtllib tamasi.mtl
o 円錐.001
v 0.000000 1.166640 0.655715
v 0.125494 1.166792 0.643354
v 0.246165 1.167243 0.606748
v 0.357376 1.167975 0.547302
v 0.454853 1.168960 0.467302
v 0.534851 1.170161 0.369821
v 0.594295 1.171531 0.258606
v 0.630900 1.173017 0.137931
v 0.643260 1.174563 0.012432
v 0.630900 1.176109 -0.113066
v 0.594295 1.177595 -0.233741
v 0.534851 1.178965 -0.344956
v 0.454853 1.180166 -0.442437
v 0.357376 1.181151 -0.522437
v 0.246165 1.181883 -0.581883
v 0.125494 1.182334 -0.618489
v 0.000000 1.182486 -0.630850
v -0.125494 1.182334 -0.618489
v -0.246165 1.181883 -0.581883
v -0.357376 1.181151 -0.522437
v -0.454853 1.180166 -0.442437
v -0.534851 1.178965 -0.344956
v -0.594295 1.177595 -0.233741
v -0.630900 1.176109 -0.113066
v -0.643260 1.174563 0.012432
v -0.630900 1.173017 0.137931
v -0.594295 1.171531 0.258606
v -0.534851 1.170161 0.369821
v -0.454853 1.168960 0.467302
v -0.357376 1.167975 0.547302
v -0.246165 1.167243 0.606748
v -0.125494 1.166792 0.643354
v 0.000000 -0.844182 -0.012432
v 0.000000 1.189775 -0.643260
v 0.125494 1.189775 -0.630900
v 0.246165 1.189775 -0.594295
v 0.357376 1.189775 -0.534851
v 0.454853 1.189775 -0.454853
v 0.534851 1.189775 -0.357376
v 0.594295 1.189775 -0.246165
v 0.630900 1.189775 -0.125494
v 0.643260 1.189775 -0.000000
v 0.630900 1.189775 0.125494
v 0.594295 1.189775 0.246165
v 0.534851 1.189775 0.357376
v 0.454853 1.189775 0.454853
v 0.357376 1.189775 0.534851
v 0.246165 1.189775 0.594295
v 0.125494 1.189775 0.630900
v 0.000000 1.189775 0.643260
v -0.125494 1.189775 0.630900
v -0.246165 1.189775 0.594295
v -0.357376 1.189775 0.534851
v -0.454853 1.189775 0.454853
v -0.534851 1.189775 0.357376
v -0.594295 1.189775 0.246165
v -0.630900 1.189775 0.125494
v -0.643260 1.189775 -0.000000
v -0.630900 1.189775 -0.125494
v -0.594295 1.189775 -0.246165
v -0.534851 1.189775 -0.357376
v -0.454853 1.189775 -0.454853
v -0.357376 1.189775 -0.534851
v -0.246165 1.189775 -0.594295
v -0.125494 1.189775 -0.630900
v 0.000000 2.972036 -0.000000
vn 0.0934 -0.3139 0.9448
vn 0.2767 -0.3135 0.9084
vn 0.4494 -0.3126 0.8369
vn 0.6048 -0.3113 0.7330
vn 0.7369 -0.3097 0.6009
vn 0.8407 -0.3078 0.4456
vn 0.9122 -0.3056 0.2729
vn 0.9486 -0.3034 0.0897
vn 0.9486 -0.3011 -0.0971
vn 0.9122 -0.2988 -0.2804
vn 0.8407 -0.2967 -0.4530
vn 0.7369 -0.2948 -0.6084
vn 0.6048 -0.2932 -0.7405
vn 0.4494 -0.2919 -0.8443
vn 0.2767 -0.2910 -0.9158
vn 0.0934 -0.2906 -0.9523
vn -0.0934 -0.2906 -0.9523
vn -0.2767 -0.2910 -0.9158
vn -0.4494 -0.2919 -0.8443
vn -0.6048 -0.2932 -0.7405
vn -0.7369 -0.2948 -0.6084
vn -0.8407 -0.2967 -0.4530
vn -0.9122 -0.2988 -0.2804
vn -0.9486 -0.3011 -0.0971
vn -0.9486 -0.3034 0.0897
vn -0.9122 -0.3056 0.2729
vn -0.8407 -0.3078 0.4456
vn -0.7369 -0.3097 0.6009
vn -0.6048 -0.3113 0.7330
vn -0.4494 -0.3126 0.8369
vn -0.0000 0.9999 0.0123
vn -0.2767 -0.3135 0.9084
vn -0.0934 -0.3139 0.9448
vn 0.0922 0.3380 -0.9366
vn 0.2732 0.3380 -0.9006
vn 0.4436 0.3380 -0.8300
vn 0.5970 0.3380 -0.7275
vn 0.7275 0.3380 -0.5970
vn 0.8300 0.3380 -0.4436
vn 0.9006 0.3380 -0.2732
vn 0.9366 0.3380 -0.0922
vn 0.9366 0.3380 0.0922
vn 0.9006 0.3380 0.2732
vn 0.8300 0.3380 0.4436
vn 0.7275 0.3380 0.5970
vn 0.5970 0.3380 0.7275
vn 0.4436 0.3380 0.8300
vn 0.2732 0.3380 0.9006
vn 0.0922 0.3380 0.9366
vn -0.0922 0.3380 0.9366
vn -0.2732 0.3380 0.9006
vn -0.4436 0.3380 0.8300
vn -0.5970 0.3380 0.7275
vn -0.7275 0.3380 0.5970
vn -0.8300 0.3380 0.4436
vn -0.9006 0.3380 0.2732
vn -0.9366 0.3380 0.0922
vn -0.9366 0.3380 -0.0922
vn -0.9006 0.3380 -0.2732
vn -0.8300 0.3380 -0.4436
vn -0.7275 0.3380 -0.5970
vn -0.5970 0.3380 -0.7275
vn -0.4436 0.3380 -0.8300
vn -0.0000 -1.0000 -0.0000
vn -0.2732 0.3380 -0.9006
vn -0.0922 0.3380 -0.9366
vt 0.181433 0.502156
vt 0.256080 0.256080
vt 0.230875 0.511991
vt 0.281285 0.511991
vt 0.330726 0.502156
vt 0.377299 0.482865
vt 0.419214 0.454859
vt 0.454859 0.419214
vt 0.482865 0.377299
vt 0.502156 0.330726
vt 0.511991 0.281285
vt 0.511991 0.230874
vt 0.502156 0.181433
vt 0.482865 0.134860
vt 0.454859 0.092946
vt 0.419214 0.057300
vt 0.377299 0.029294
vt 0.330726 0.010003
vt 0.281285 0.000168
vt 0.230874 0.000168
vt 0.181433 0.010003
vt 0.134860 0.029294
vt 0.092946 0.057300
vt 0.057300 0.092946
vt 0.029294 0.134860
vt 0.010003 0.181433
vt 0.000168 0.230875
vt 0.000168 0.281285
vt 0.010003 0.330726
vt 0.029294 0.377299
vt 0.057300 0.419214
vt 0.092946 0.454859
vt 0.335220 0.732958
vt 0.121153 0.847379
vt 0.006732 0.633313
vt 0.134860 0.482865
vt 0.512328 0.267919
vt 0.753797 0.244243
vt 0.521613 0.314814
vt 0.539833 0.359019
vt 0.566303 0.398854
vt 0.600027 0.432800
vt 0.639733 0.459555
vt 0.683918 0.478084
vt 0.730903 0.487660
vt 0.778893 0.487893
vt 0.826048 0.478751
vt 0.870548 0.460562
vt 0.910668 0.434005
vt 0.944846 0.400090
vt 0.971743 0.360116
vt 0.990301 0.315628
vt 0.999790 0.268350
vt 0.999832 0.220120
vt 0.990423 0.172817
vt 0.971932 0.128282
vt 0.945086 0.088246
vt 0.910938 0.054258
vt 0.870824 0.027626
vt 0.826309 0.009368
vt 0.779123 0.000168
vt 0.731091 0.000359
vt 0.684060 0.009909
vt 0.639830 0.028429
vt 0.600086 0.055186
vt 0.566333 0.089144
vt 0.539844 0.128994
vt 0.521615 0.173212
vt 0.574242 0.526360
vt 0.633294 0.494793
vt 0.764004 0.507672
vt 0.512328 0.220114
vt 0.019608 0.602228
vt 0.038301 0.574252
vt 0.062092 0.550460
vt 0.090068 0.531767
vt 0.121153 0.518892
vt 0.154153 0.512328
vt 0.187799 0.512328
vt 0.220799 0.518892
vt 0.251884 0.531767
vt 0.279860 0.550460
vt 0.303651 0.574252
vt 0.322344 0.602227
vt 0.335220 0.633313
vt 0.341784 0.666312
vt 0.341784 0.699958
vt 0.322344 0.764043
vt 0.303651 0.792019
vt 0.279860 0.815810
vt 0.251884 0.834503
vt 0.220799 0.847379
vt 0.187799 0.853943
vt 0.154153 0.853943
vt 0.090068 0.834503
vt 0.062092 0.815811
vt 0.038301 0.792019
vt 0.019608 0.764043
vt 0.006732 0.732958
vt 0.000168 0.699959
vt 0.000168 0.666312
vt 0.847327 0.609220
vt 0.853890 0.642220
vt 0.518891 0.708856
vt 0.853890 0.675866
vt 0.847327 0.708865
vt 0.834454 0.739950
vt 0.815764 0.767925
vt 0.602214 0.810403
vt 0.791976 0.791716
vt 0.764004 0.810408
vt 0.732924 0.823283
vt 0.699930 0.829846
vt 0.666289 0.829845
vt 0.633294 0.823280
vt 0.574242 0.791709
vt 0.550454 0.767917
vt 0.531764 0.739941
vt 0.512327 0.675856
vt 0.512327 0.642210
vt 0.518891 0.609210
vt 0.531764 0.578125
vt 0.550454 0.550150
vt 0.602213 0.507668
vt 0.666288 0.488230
vt 0.699929 0.488231
vt 0.732924 0.494796
vt 0.791976 0.526366
vt 0.815764 0.550158
vt 0.834454 0.578135
s 0
usemtl マテリアル
f 1/1/1 33/2/1 2/3/1
f 2/3/2 33/2/2 3/4/2
f 3/4/3 33/2/3 4/5/3
f 4/5/4 33/2/4 5/6/4
f 5/6/5 33/2/5 6/7/5
f 6/7/6 33/2/6 7/8/6
f 7/8/7 33/2/7 8/9/7
f 8/9/8 33/2/8 9/10/8
f 9/10/9 33/2/9 10/11/9
f 10/11/10 33/2/10 11/12/10
f 11/12/11 33/2/11 12/13/11
f 12/13/12 33/2/12 13/14/12
f 13/14/13 33/2/13 14/15/13
f 14/15/14 33/2/14 15/16/14
f 15/16/15 33/2/15 16/17/15
f 16/17/16 33/2/16 17/18/16
f 17/18/17 33/2/17 18/19/17
f 18/19/18 33/2/18 19/20/18
f 19/20/19 33/2/19 20/21/19
f 20/21/20 33/2/20 21/22/20
f 21/22/21 33/2/21 22/23/21
f 22/23/22 33/2/22 23/24/22
f 23/24/23 33/2/23 24/25/23
f 24/25/24 33/2/24 25/26/24
f 25/26/25 33/2/25 26/27/25
f 26/27/26 33/2/26 27/28/26
f 27/28/27 33/2/27 28/29/27
f 28/29/28 33/2/28 29/30/28
f 29/30/29 33/2/29 30/31/29
f 30/31/30 33/2/30 31/32/30
f 16/33/31 24/34/31 32/35/31
f 31/32/32 33/2/32 32/36/32
f 32/36/33 33/2/33 1/1/33
f 34/37/34 66/38/34 35/39/34
f 35/39/35 66/38/35 36/40/35
f 36/40/36 66/38/36 37/41/36
f 37/41/37 66/38/37 38/42/37
f 38/42/38 66/38/38 39/43/38
f 39/43/39 66/38/39 40/44/39
f 40/44/40 66/38/40 41/45/40
f 41/45/41 66/38/41 42/46/41
f 42/46/42 66/38/42 43/47/42
f 43/47/43 66/38/43 44/48/43
f 44/48/44 66/38/44 45/49/44
f 45/49/45 66/38/45 46/50/45
f 46/50/46 66/38/46 47/51/46
f 47/51/47 66/38/47 48/52/47
f 48/52/48 66/38/48 49/53/48
f 49/53/49 66/38/49 50/54/49
f 50/54/50 66/38/50 51/55/50
f 51/55/51 66/38/51 52/56/51
f 52/56/52 66/38/52 53/57/52
f 53/57/53 66/38/53 54/58/53
f 54/58/54 66/38/54 55/59/54
f 55/59/55 66/38/55 56/60/55
f 56/60/56 66/38/56 57/61/56
f 57/61/57 66/38/57 58/62/57
f 58/62/58 66/38/58 59/63/58
f 59/63/59 66/38/59 60/64/59
f 60/64/60 66/38/60 61/65/60
f 61/65/61 66/38/61 62/66/61
f 62/66/62 66/38/62 63/67/62
f 63/67/63 66/38/63 64/68/63
f 55/69/64 57/70/64 61/71/64
f 64/68/65 66/38/65 65/72/65
f 65/72/66 66/38/66 34/37/66
f 32/35/31 1/73/31 2/74/31
f 2/74/31 3/75/31 4/76/31
f 4/76/31 5/77/31 6/78/31
f 6/78/31 7/79/31 8/80/31
f 8/80/31 9/81/31 10/82/31
f 10/82/31 11/83/31 12/84/31
f 12/84/31 13/85/31 14/86/31
f 14/86/31 15/87/31 16/33/31
f 16/33/31 17/88/31 18/89/31
f 18/89/31 19/90/31 20/91/31
f 20/91/31 21/92/31 22/93/31
f 22/93/31 23/94/31 24/34/31
f 24/34/31 25/95/31 26/96/31
f 26/96/31 27/97/31 28/98/31
f 28/98/31 29/99/31 30/100/31
f 30/100/31 31/101/31 32/35/31
f 32/35/31 2/74/31 8/80/31
f 2/74/31 4/76/31 8/80/31
f 4/76/31 6/78/31 8/80/31
f 8/80/31 10/82/31 16/33/31
f 10/82/31 12/84/31 16/33/31
f 12/84/31 14/86/31 16/33/31
f 16/33/31 18/89/31 24/34/31
f 18/89/31 20/91/31 24/34/31
f 20/91/31 22/93/31 24/34/31
f 24/34/31 26/96/31 32/35/31
f 26/96/31 28/98/31 32/35/31
f 28/98/31 30/100/31 32/35/31
f 32/35/31 8/80/31 16/33/31
f 65/102/64 34/103/64 49/104/64
f 34/103/64 35/105/64 49/104/64
f 35/105/64 36/106/64 49/104/64
f 36/106/64 37/107/64 49/104/64
f 37/107/64 38/108/64 45/109/64
f 38/108/64 39/110/64 45/109/64
f 39/110/64 40/111/64 41/112/64
f 41/112/64 42/113/64 43/114/64
f 43/114/64 44/115/64 41/112/64
f 44/115/64 45/109/64 41/112/64
f 45/109/64 46/116/64 37/107/64
f 46/116/64 47/117/64 37/107/64
f 47/117/64 48/118/64 37/107/64
f 48/118/64 49/104/64 37/107/64
f 49/104/64 50/119/64 65/102/64
f 50/119/64 51/120/64 65/102/64
f 51/120/64 52/121/64 65/102/64
f 52/121/64 53/122/64 65/102/64
f 53/122/64 54/123/64 61/71/64
f 54/123/64 55/69/64 61/71/64
f 55/69/64 56/124/64 57/70/64
f 57/70/64 58/125/64 59/126/64
f 59/126/64 60/127/64 57/70/64
f 60/127/64 61/71/64 57/70/64
f 61/71/64 62/128/64 53/122/64
f 62/128/64 63/129/64 53/122/64
f 63/129/64 64/130/64 53/122/64
f 64/130/64 65/102/64 53/122/64
f 39/110/64 41/112/64 45/109/64
